<?xml version="1.0" encoding="UTF-8"?>
<svg id="Layer_1" data-name="Layer 1" xmlns="http://www.w3.org/2000/svg" xmlns:xlink="http://www.w3.org/1999/xlink" viewBox="0 0 216.21 59.49">
  <defs>
    <style>
      .cls-1, .cls-2, .cls-3 {
        stroke-width: 0px;
      }

      .cls-1, .cls-4 {
        fill: #a32923;
      }

      .cls-2, .cls-3 {
        fill: #08456b;
      }

      .cls-3 {
        fill-rule: evenodd;
      }

      .cls-5 {
        clip-path: url(#clippath-1);
      }
    </style>
    <clipPath id="clippath-1">
      <path class="cls-1" d="M38.16,33.41c-.47-.38-1.02-.48-1.6-.48-.14,0-.21-.04-.25-.18-.22-.63-.85-1-1.51-.9-.61.1-1.1.63-1.15,1.27-.04.61.36,1.2.97,1.39.6.19,1.27-.06,1.57-.61.11-.21.23-.3.45-.25.08,0,.15,0,.22,0,.71.04,1.18.45,1.3,1.1.11.62-.22,1.14-.8,1.24-.23.04-.46,0-.69-.05-.62-.17-1.24-.15-1.84.05-.14.05-.2.02-.27-.12-.33-.74-.93-1.06-1.73-.95-.53.08-1,.31-1.44.6-.11.07-.18.06-.28-.01-.31-.23-.65-.42-1.03-.53-.79-.23-1.44.04-1.83.77-.03.05-.06.1-.07.15-.04.13-.1.17-.24.11-.33-.12-.68-.17-1.04-.18-.37,0-.72.09-1.08.16-.6.11-1.08-.15-1.24-.67-.2-.68.2-1.4.88-1.59.24-.07.49-.07.74-.08.15,0,.24.04.31.19.27.53.83.81,1.42.73.55-.08,1-.51,1.13-1.07.12-.55-.12-1.12-.6-1.43-.73-.47-1.73-.13-2.02.69-.05.14-.11.2-.26.19-.16-.01-.33.01-.49.03-1.26.12-1.99,1.18-1.84,2.26.08.59.37,1.04.91,1.31.48.24.98.22,1.48.08.57-.15,1.11-.09,1.65.12.09.03.14.09.16.18.11.61.46,1.07.92,1.45.1.09.12.14.04.26-.35.54-.09,1.31.53,1.46.3.07.36.24.41.47,0,.04.02.08.03.11.18.68.32,1.37.54,2.04.09.29.2.58.42.8.27.28.63.28.9-.01.15-.16.24-.37.32-.57.16-.42.27-.86.38-1.29.03-.14.08-.22.24-.21.11,0,.22-.05.32-.1.63-.35.7-1.21.14-1.66-.07-.05-.14-.09-.1-.2.09-.24.18-.48.31-.71.06-.11.14-.15.27-.15.66,0,1.12-.54.98-1.19-.04-.18,0-.34.02-.51,0-.06.04-.12.11-.14.38-.14.76-.23,1.17-.2.34.02.66.15,1,.17.51.03.98-.08,1.36-.44.79-.75.7-2.15-.18-2.86ZM35.02,33.87c-.36,0-.65-.29-.66-.65,0-.37.29-.67.66-.67.36,0,.65.3.65.66,0,.36-.29.66-.65.66ZM27.69,32.54c.36,0,.66.29.66.67,0,.36-.29.66-.65.66-.34,0-.66-.31-.66-.66,0-.35.3-.66.65-.67ZM33.88,36.61c-.3-.04-.58.02-.82.23-.36.32-.45.83-.21,1.24.06.1.06.16,0,.26-.19.29-.31.62-.42.95-.04.1-.09.17-.19.21-.64.27-.82,1-.4,1.56.04.05.08.09.06.17-.13.54-.25,1.08-.48,1.6,0,.02-.02.04-.06.08-.14-.26-.22-.51-.28-.76-.19-.71-.37-1.43-.55-2.14-.03-.1.02-.15.08-.22.45-.53.23-1.35-.43-1.58-.04-.01-.08-.03-.11-.03-.44.01-.64-.35-.91-.59-.26-.23-.41-.53-.45-.88-.04-.34.22-.85.53-1.02.18-.1.37-.09.56-.04.5.12.9.41,1.26.75.12.11.19.12.32.01.44-.35.93-.64,1.49-.76.71-.16,1.03.32,1.15.84.02.1,0,.16-.13.14Z"/>
    </clipPath>
  </defs>
  <g>
    <g>
      <path class="cls-1" d="M113.92,43.24c-.13.05-.29.1-.51.1-.28,0-.51-.23-.51-.95v-2.93c0-.77-.15-1.42-.71-1.9-.42-.34-.93-.56-1.59-.56-.96.15-1.98.72-2.62,1.16-.36.26-.54.49-.54.75,0,.46.6.78,1.03.78.29,0,.49-.13.59-.52.11-.52.25-.88.41-1.09.18-.23.34-.31.59-.31.46,0,.88.49.88,1.44v.67c-.38.34-1.7.78-2.46,1.08-.8.31-1.16.78-1.16,1.62,0,.96.78,2.04,2.09,2.04.39,0,1.11-.54,1.62-.9.07.16.16.36.38.56.2.2.52.34.92.34l1.71-.88-.15-.51ZM110.97,43.16c-.18.16-.35.23-.57.23-.42,0-.98-.43-.98-1.23,0-.56.23-.82.68-1.09.3-.18.57-.36.87-.52v2.62Z"/>
      <path class="cls-1" d="M190.81,38.7v-1.7c-.85.29-1.82.51-2.8.62v.44c.7.18.8.26.8,1.13v3.6c0,.97-.1,1.06-.93,1.14v.51h4.11v-.51c-1.1-.08-1.18-.15-1.18-1.14v-3.24c.26-.62.52-.72.8-.72.25,0,.43.11.67.33.11.1.26.13.47.05.38-.15.79-.61.79-1.18s-.41-1.01-.98-1.01c-.64,0-1.19.69-1.72,1.68h-.03Z"/>
      <path class="cls-1" d="M185.16,43.19c-1.08,0-2.01-.93-2.06-2.68,1.5-.06,3.43-.21,3.66-.26.38-.07.44-.25.44-.61.02-1.33-1.03-2.63-2.5-2.63-.9,0-1.75.49-2.37,1.14-.56.57-1.14,1.62-1.14,2.99,0,1.85,1.16,3.48,3.22,3.48.67,0,1.85-.36,2.73-1.7l-.3-.41c-.52.46-1.01.67-1.68.67ZM184.42,37.63c.57,0,.9.88.9,1.7,0,.29-.08.37-.35.37-.61.03-1.16.05-1.8.05.08-1.24.65-2.13,1.24-2.13Z"/>
      <path class="cls-1" d="M180.84,43.88l-.16-.54c-.21.1-.44.18-.8.18-.41,0-.87-.23-.87-1.46v-4.11h1.44c.25-.1.26-.57.1-.75h-1.54v-2.27l-.23-.11-1.77,1.24v1.15h-.57l-.44.57.08.18h.93v4.65c0,1.46.7,2.03,1.86,2.03.18,0,.41-.07.67-.18l1.29-.57Z"/>
      <path class="cls-1" d="M175.61,44.44v-.51c-.75-.1-.85-.13-.85-1.16v-3.26c0-1.5-.69-2.5-1.96-2.5-.51,0-.82.18-1.24.46-.31.21-.59.44-.92.67v-1.14c-.83.26-1.78.49-2.78.61v.43c.74.15.79.21.79,1.19v3.53c0,1.05-.08,1.08-1,1.18v.51h3.7v-.51c-.61-.08-.7-.15-.7-1.13v-4.07c.39-.33.7-.47,1.11-.47.57,0,1.01.38,1.01,1.5v2.99c0,1.05-.08,1.1-.74,1.18v.51h3.58Z"/>
      <path class="cls-1" d="M165.01,43.19c-1.08,0-2.01-.93-2.06-2.68,1.5-.06,3.44-.21,3.66-.26.37-.07.44-.25.44-.61.01-1.33-1.03-2.63-2.5-2.63-.9,0-1.75.49-2.37,1.14-.56.57-1.14,1.62-1.14,2.99,0,1.85,1.16,3.48,3.22,3.48.67,0,1.85-.36,2.73-1.7l-.29-.41c-.52.46-1.02.67-1.69.67ZM164.27,37.63c.57,0,.9.88.9,1.7,0,.29-.08.37-.34.37-.61.03-1.16.05-1.8.05.08-1.24.65-2.13,1.24-2.13Z"/>
      <path class="cls-1" d="M159.56,41.64c-.7,1.46-1.52,2.34-2.68,2.34-1.77,0-3.09-2.03-3.09-4.96,0-2.44,1.16-4.65,3.01-4.65,1.08,0,2.01.56,2.52,2.32l.56-.11c-.08-.88-.16-1.62-.28-2.52-.44-.1-1.44-.34-2.47-.34-3.48,0-5.71,2.31-5.71,5.63,0,2.55,1.47,5.3,5.3,5.3,1.01,0,2.22-.28,2.63-.39.25-.56.57-1.7.77-2.42l-.56-.2Z"/>
      <path class="cls-1" d="M145.13,43.07c-.49,0-.95.01-1.47.01-.66,0-.92-.34-.92-.6,0-.18.11-.38.26-.49.33.02.56.05.69.05,1.55,0,2.91-.82,2.91-2.49,0-.54-.15-.93-.42-1.28l.9.07c.23-.2.49-.64.59-.95l-.1-.11c-.62.06-1.33.16-2.06.2-.52-.31-1-.46-1.7-.46-1.46,0-2.98.87-2.98,2.67,0,1.01.64,1.81,1.57,2.14-.28.31-.78.74-1.64,1.08-.01.26.07.56.2.8.2.31.54.7,1.13.95-.33.23-.85.56-1.19.85-.31.25-.44.48-.44.8,0,.9.93,1.95,2.91,1.95,2.16,0,4.12-1.49,4.12-3.25,0-1.44-1.14-1.93-2.36-1.93ZM143.71,37.6c.69,0,1.03.87,1.03,2.05s-.31,1.78-.87,1.8c-.65,0-1.04-.8-1.04-2.05s.39-1.8.88-1.8ZM144.15,47.4c-1.14,0-2.01-.72-2.01-1.55,0-.33.15-.57.33-.78.21-.26.52-.33,1.34-.33.57,0,.97.03,1.36.15.47.15.83.42.83,1.02,0,.83-.66,1.5-1.85,1.5Z"/>
      <path class="cls-1" d="M139.95,44.44v-.51c-.75-.1-.85-.13-.85-1.16v-3.26c0-1.5-.69-2.5-1.96-2.5-.51,0-.82.18-1.24.46-.31.21-.59.44-.92.67v-1.14c-.83.26-1.78.49-2.78.61v.43c.74.15.79.21.79,1.19v3.53c0,1.05-.08,1.08-1,1.18v.51h3.7v-.51c-.61-.08-.7-.15-.7-1.13v-4.07c.39-.33.7-.47,1.11-.47.57,0,1.01.38,1.01,1.5v2.99c0,1.05-.08,1.1-.74,1.18v.51h3.58Z"/>
      <path class="cls-1" d="M131.44,44.44v-.51c-.87-.1-.97-.18-.97-1.28v-5.64c-.93.28-1.93.49-2.85.62v.44c.77.16.85.2.85,1.21v3.37c0,1.11-.08,1.18-.93,1.28v.51h3.89Z"/>
      <path class="cls-1" d="M129.37,36.1c.64,0,1.11-.51,1.11-1.13s-.47-1.13-1.1-1.13c-.59,0-1.1.49-1.1,1.13s.51,1.13,1.08,1.13Z"/>
      <path class="cls-1" d="M126.83,44.44v-.51c-.75-.1-.85-.13-.85-1.16v-3.26c0-1.5-.69-2.5-1.96-2.5-.51,0-.82.18-1.24.46-.31.21-.59.44-.92.67v-1.14c-.83.26-1.78.49-2.78.61v.43c.74.15.79.21.79,1.19v3.53c0,1.05-.08,1.08-1,1.18v.51h3.7v-.51c-.61-.08-.7-.15-.7-1.13v-4.07c.39-.33.7-.47,1.11-.47.57,0,1.01.38,1.01,1.5v2.99c0,1.05-.08,1.1-.74,1.18v.51h3.58Z"/>
      <path class="cls-1" d="M118.33,44.44v-.51c-.87-.1-.97-.18-.97-1.28v-5.64c-.93.28-1.93.49-2.85.62v.44c.77.16.85.2.85,1.21v3.37c0,1.11-.08,1.18-.93,1.28v.51h3.89Z"/>
      <path class="cls-1" d="M116.25,36.1c.64,0,1.11-.51,1.11-1.13s-.47-1.13-1.1-1.13c-.59,0-1.1.49-1.1,1.13s.51,1.13,1.08,1.13Z"/>
      <path class="cls-1" d="M104,38.7v-1.7c-.85.29-1.82.51-2.8.62v.44c.7.18.8.26.8,1.13v3.6c0,.97-.1,1.06-.93,1.14v.51h4.11v-.51c-1.1-.08-1.18-.15-1.18-1.14v-3.24c.26-.62.52-.72.8-.72.25,0,.43.11.67.33.11.1.26.13.47.05.38-.15.79-.61.79-1.18s-.41-1.01-.98-1.01c-.64,0-1.19.69-1.72,1.68h-.03Z"/>
      <path class="cls-1" d="M101.48,36.51c-.07-1-.15-2.31-.16-2.98h-.39c-.25.31-.46.41-.83.41h-5.66c-.44,0-.62-.08-.87-.41h-.39c-.02.82-.11,1.95-.18,3.03h.56c.18-.72.34-1.26.57-1.54.25-.31.59-.43,1.49-.43h.59v7.74c0,1.34-.13,1.47-1.36,1.57v.54h4.84v-.54c-1.28-.1-1.41-.23-1.41-1.57v-7.74h.74c.65,0,1.06.08,1.32.36.25.28.41.77.61,1.59l.54-.03Z"/>
    </g>
    <g>
      <path class="cls-2" d="M215.47,29.19c-.85-.12-1.03-.26-1.03-1.71V11.24c-1.22.39-3.4.79-5.16.96v.82c1.62.2,1.71.34,1.71,1.9v3.23c-.48-.09-.8-.14-1.08-.14-4.08,0-7.12,3.18-7.12,7.04,0,4.17,3,6.18,5.31,6.18.39,0,.85-.09,1.5-.54l1.39-.96v1.5c2.01-.62,4.42-.97,5.22-1.08v-.89l-.74-.08ZM210.99,28.77c-.46.32-.82.37-1.28.37-1.25,0-3.04-1.45-3.04-4.88-.02-4.41,1.96-5.08,2.59-5.08.68,0,1.33.46,1.73,1.48v8.11Z"/>
      <path class="cls-2" d="M194.95,18.02c-2.86,0-6.18,2.22-6.18,6.9,0,3.07,1.99,6.33,6.1,6.33,3.12,0,6.04-2.27,6.04-6.86,0-3.38-2.27-6.36-5.96-6.36ZM195.13,30.16c-1.62,0-2.53-2.7-2.53-6.25,0-3.29.94-4.82,2.02-4.82,1.57,0,2.47,2.3,2.47,6.11,0,4.17-.99,4.97-1.95,4.97Z"/>
      <path class="cls-2" d="M180.91,18.02c-2.86,0-6.18,2.22-6.18,6.9,0,3.07,1.99,6.33,6.1,6.33,3.12,0,6.05-2.27,6.05-6.86,0-3.38-2.27-6.36-5.96-6.36ZM181.08,30.16c-1.62,0-2.53-2.7-2.53-6.25,0-3.29.94-4.82,2.02-4.82,1.56,0,2.47,2.3,2.47,6.11,0,4.17-.99,4.97-1.95,4.97Z"/>
      <path class="cls-2" d="M173.36,30.9v-.88c-1.33-.2-1.48-.26-1.48-2.04v-5.39c0-2.92-1.22-4.57-3.6-4.57-1.42,0-2.67.91-3.55,1.79v-8.57c-1.67.43-3.49.79-4.99.96v.82c1.45.17,1.53.17,1.53,1.84v13.11c0,1.79-.17,1.9-1.7,2.04v.88h6.36v-.88c-1.05-.17-1.19-.28-1.19-1.96v-7.18c.57-.6,1.19-.79,1.84-.79,1.05,0,1.84.71,1.84,2.78v5.19c0,1.62-.11,1.76-1.31,1.96v.88h6.24Z"/>
      <path class="cls-2" d="M154.38,20.94v-2.95c-1.48.51-3.15.88-4.85,1.08v.77c1.22.31,1.39.45,1.39,1.96v6.24c0,1.67-.17,1.84-1.62,1.99v.88h7.12v-.88c-1.9-.14-2.04-.26-2.04-1.99v-5.62c.45-1.08.91-1.25,1.39-1.25.43,0,.74.2,1.16.57.2.17.45.23.82.09.65-.26,1.36-1.05,1.36-2.04s-.71-1.76-1.7-1.76c-1.11,0-2.07,1.19-2.98,2.92h-.06Z"/>
      <path class="cls-2" d="M144.59,28.74c-1.87,0-3.49-1.61-3.57-4.65,2.61-.11,5.96-.37,6.36-.45.65-.12.77-.43.77-1.05.02-2.3-1.79-4.57-4.34-4.57-1.57,0-3.04.85-4.12,1.99-.97,1-1.99,2.81-1.99,5.2,0,3.2,2.02,6.04,5.59,6.04,1.16,0,3.21-.62,4.74-2.95l-.51-.71c-.91.8-1.76,1.16-2.93,1.16ZM143.32,19.09c.99,0,1.56,1.53,1.56,2.96,0,.51-.14.65-.59.65-1.05.05-2.02.09-3.12.09.14-2.16,1.14-3.69,2.16-3.69Z"/>
      <path class="cls-2" d="M136.33,30.9v-.88c-1.33-.2-1.48-.26-1.48-2.04v-5.39c0-2.92-1.22-4.57-3.6-4.57-1.42,0-2.67.91-3.55,1.79v-8.57c-1.67.43-3.49.79-4.99.96v.82c1.45.17,1.53.17,1.53,1.84v13.11c0,1.79-.17,1.9-1.7,2.04v.88h6.36v-.88c-1.05-.17-1.19-.28-1.19-1.96v-7.18c.57-.6,1.19-.79,1.84-.79,1.05,0,1.84.71,1.84,2.78v5.19c0,1.62-.11,1.76-1.31,1.96v.88h6.24Z"/>
      <path class="cls-2" d="M122.03,29.94l-.28-.94c-.37.17-.77.31-1.39.31-.71,0-1.5-.4-1.5-2.53v-7.12h2.5c.43-.17.45-.99.17-1.31h-2.67v-3.94l-.4-.2-3.06,2.16v1.99h-.99l-.77.99.14.31h1.62v8.06c0,2.53,1.22,3.52,3.23,3.52.31,0,.71-.11,1.16-.31l2.24-.99Z"/>
      <path class="cls-2" d="M106.66,18.02c-2.87,0-6.19,2.22-6.19,6.9,0,3.07,1.99,6.33,6.1,6.33,3.12,0,6.04-2.27,6.04-6.86,0-3.38-2.27-6.36-5.95-6.36ZM106.82,30.16c-1.61,0-2.52-2.7-2.52-6.25,0-3.29.93-4.82,2.02-4.82,1.56,0,2.47,2.3,2.47,6.11,0,4.17-1,4.97-1.96,4.97Z"/>
      <path class="cls-3" d="M96.89,29.58h-1.4v-15.99h1.4v-1.49h-5.79l-4.23,12.58-4.43-12.58h-6.34c-1.32.02-2.61.15-3.8.73l-.21.11-.19.12-.18.13-.17.14-.16.14-.15.15-.14.16-.12.17-.11.18-.1.18-.09.19-.08.2-.07.21-.06.22-.05.23-.04.24-.03.25-.02.26v.27s0,.18,0,.18v.17s.03.17.03.17l.02.17.03.16.04.16.04.16.05.15.06.15.06.15.07.14.08.14.08.14.09.13.1.13.1.13.11.12.11.11.11.11.12.1.12.09.12.08.12.07.13.07.13.06.13.05.13.04.14.04.14.03.14.02h.15s.15.02.15.02h.11s.1,0,.1,0h.1s.1-.03.1-.03l.1-.02.09-.02.09-.03.09-.03.09-.04.09-.04.08-.05.08-.05.08-.06.08-.06.08-.07.07-.07.07-.07.07-.07.06-.07.06-.08.05-.08.05-.08.04-.08.04-.08.03-.08.03-.08.02-.09.02-.09v-.09s.03-.09.03-.09v-.09s0-.09,0-.09v-.15s-.02-.14-.02-.14l-.03-.13-.04-.13-.06-.12-.07-.12-.08-.12-.1-.12-.05-.05-.05-.05-.05-.05-.06-.04-.06-.04-.06-.04-.06-.03-.06-.03-.06-.03-.06-.02-.06-.02-.06-.02h-.06s-.07-.02-.07-.02h-.07s-.07,0-.07,0h-.04s-.04,0-.04,0h-.05s-.05.02-.05.02l-.05.02-.05.02-.06.02-.06.03-.07.03-.07.03-.06.03-.06.02-.06.02-.06.02h-.06s-.06.02-.06.02h-.15s-.15-.06-.15-.06l-.14-.09-.11-.13-.08-.16-.05-.17-.03-.19v-.2s0-.25,0-.25l.05-.24.08-.23c.42-.78,1.16-1.15,2.01-1.34.38-.07,1.89-.11,3.37-.1v.47s0,9.97,0,9.97v5.59h-1.99v1.49h6.15v-1.49h-1.99v-13.97s.03.06.04.1l5.47,15.37h1.7l5.02-15.53v14.04h-1.4v1.49h6.15v-1.49Z"/>
    </g>
  </g>
  <g>
    <path class="cls-1" d="M62.59,19.19c.03.12.05.24.05.36-.01.14-.05.28-.1.42-.12.29-.32.57-.59.78-.48.39-1.11.55-1.63.42l-.07-.02-.11,1.51.12-.17c.12-.16.26-.31.41-.43.54-.41,1.24-.56,1.76-.36.06.24.03.52-.08.78-.06.14-.13.28-.23.4-.11.13-.23.25-.38.36-.5.37-1.14.5-1.66.35l-.07-.02-.2,1.5.13-.17c.13-.16.27-.3.44-.41.56-.39,1.27-.5,1.78-.29.1.53-.2,1.13-.75,1.51-.49.35-1.14.45-1.66.27l-.06-.02-.28,1.49.14-.16c.13-.15.29-.28.46-.39.58-.36,1.3-.44,1.8-.21.07.53-.27,1.12-.84,1.48-.52.32-1.16.4-1.66.2l-.07-.03-.05.26s0,.06-.03.15l-.27,1.06.15-.15c.14-.14.31-.27.49-.37.62-.34,1.32-.38,1.81-.12.04.53-.33,1.11-.93,1.44-.54.3-1.18.34-1.67.11l-.06-.03-.19.75-.22.7.16-.15c.15-.14.32-.25.51-.34.62-.31,1.32-.32,1.79-.03,0,.12,0,.25-.04.37-.04.12-.1.25-.19.39-.18.26-.45.48-.76.63-.56.27-1.2.28-1.68.02l-.06-.03-.23.74c-.04.13-.08.25-.12.34l-.14.36.17-.14c.15-.12.32-.23.52-.32.62-.27,1.33-.25,1.79.06,0,.2-.05.48-.26.75-.2.25-.47.46-.8.59-.57.24-1.22.21-1.68-.07l-.06-.04-.28.73s-.03.09-.05.13c-.03.08-.05.15-.08.2l-.15.34.17-.12c.19-.13.36-.22.54-.29.64-.24,1.35-.17,1.79.16-.02.26-.12.52-.3.74-.21.24-.5.43-.83.54-.58.2-1.23.14-1.68-.17l-.06-.04-.32.71c-.1.24-.22.46-.22.47l-.1.19.18-.11c.2-.12.37-.2.55-.26.65-.2,1.36-.09,1.77.27-.03.26-.15.51-.35.72-.23.23-.53.4-.86.49-.59.17-1.23.07-1.66-.27l-.05-.04-.36.69c-.07.13-.14.25-.17.31l-.2.33.19-.11c.16-.09.35-.16.57-.22.66-.16,1.36-.01,1.75.37-.04.2-.14.47-.39.69-.24.22-.55.37-.89.44-.6.13-1.23,0-1.64-.37l-.05-.05-.13.22s-.13.23-.27.44l-.41.61.19-.09c.19-.09.38-.15.59-.18.69-.12,1.36.07,1.73.48-.03.12-.08.24-.15.35-.08.11-.18.22-.3.32-.25.2-.57.34-.91.39-.61.1-1.22-.08-1.61-.47l-.05-.05-.15.22s-.03.05-.09.13l-.67.88.2-.08c.19-.08.39-.13.59-.15.7-.06,1.37.17,1.71.6-.17.51-.75.9-1.43.97-.6.06-1.22-.16-1.58-.57l-.05-.05-.98,1.16.2-.07c.19-.07.39-.1.59-.11.69-.03,1.35.26,1.66.71-.22.51-.8.87-1.48.88-.62.01-1.21-.25-1.55-.68l-.04-.05-.73.78-.31.31.21-.05c.17-.04.38-.08.6-.07.69.01,1.33.34,1.61.81-.11.23-.31.43-.56.58-.29.15-.62.22-.98.2-.62-.03-1.19-.32-1.49-.78l-.04-.06-.31.3c-.07.07-.16.15-.26.23l-.56.49.21-.04c.2-.04.41-.05.61-.03.7.07,1.3.43,1.55.92-.25.46-.9.74-1.59.67-.61-.06-1.16-.39-1.43-.87l-.03-.06-1.19.94.21-.03c.2-.03.4-.02.6,0,.68.11,1.28.52,1.49,1.02-.31.46-.96.69-1.62.57-.61-.11-1.14-.48-1.38-.97l-.03-.06-.63.46c-.21.15-.42.29-.43.29l-.19.12h.22c.2-.02.41,0,.61.04.67.15,1.23.59,1.42,1.11-.16.21-.39.37-.66.45-.31.09-.65.09-.99.01-.6-.14-1.1-.55-1.31-1.05l-.03-.07-1.29.79h.21s0,0,0,0c.2,0,.4.03.59.09.66.2,1.2.68,1.35,1.2-.37.42-1.04.56-1.68.36-.59-.19-1.07-.62-1.25-1.14l-.02-.07-.68.37-.66.33.21.02c.2.01.4.06.6.13.65.24,1.15.74,1.26,1.28-.36.39-1.05.49-1.7.25-.58-.22-1.03-.69-1.17-1.21l-.02-.07-.71.33-.68.29.21.03c.2.03.4.08.59.17.63.27,1.1.82,1.18,1.36-.39.36-1.09.42-1.72.14-.56-.26-.98-.75-1.09-1.29v-.07s-.25.09-.25.09c0,0-.24.1-.49.18l-.69.25.21.04c.2.04.39.11.57.2.62.33,1.04.89,1.09,1.44-.43.34-1.14.35-1.74.02-.55-.29-.92-.82-.99-1.37v-.07s-.73.2-.73.2c-.05.01-.1,0-.14-.02-.04-.02-.06-.06-.08-.1-.02-.09.04-.19.13-.21l.41-.11.02.07.06-.02.06-.02-.02-.07.19-.06-.03-.06c-.22-.46-.22-1.11.01-1.68.25-.61.69-.98,1.16-.99.33.47.39,1.19.15,1.78-.07.18-.18.36-.31.51l-.14.16.69-.24c.24-.08.49-.18.49-.18l.24-.09-.04-.06c-.27-.45-.31-1.09-.11-1.67.2-.62.62-1.03,1.1-1.08.36.45.47,1.14.28,1.77-.06.19-.15.36-.27.53l-.12.17.67-.29.7-.32-.04-.06c-.3-.43-.38-1.07-.23-1.66.16-.63.55-1.06,1.03-1.15.39.42.54,1.12.39,1.75-.05.19-.13.37-.24.54l-.11.18.65-.33.68-.37-.04-.05c-.33-.41-.45-1.04-.33-1.64.13-.65.51-1.12.96-1.21.42.4.62,1.07.5,1.72-.04.2-.1.39-.2.56l-.1.19,1.07-.64.21-.14-.05-.05c-.35-.39-.52-1.01-.44-1.63.04-.33.15-.63.32-.85.16-.22.35-.36.56-.42.44.37.68,1.03.61,1.69-.02.2-.08.39-.16.57l-.09.18.17-.11s.22-.14.43-.29l.62-.45-.05-.05c-.37-.37-.58-.98-.54-1.58.05-.67.35-1.18.79-1.32.47.34.75.98.71,1.64-.01.2-.05.39-.13.58l-.08.2,1.18-.93-.05-.05c-.39-.34-.64-.94-.65-1.56,0-.64.26-1.16.71-1.37.49.31.82.95.82,1.59,0,.2-.03.39-.09.59l-.06.2.55-.48c.1-.08.19-.18.26-.24l.3-.29-.05-.04c-.42-.31-.7-.89-.74-1.51-.02-.33.03-.64.15-.89.1-.24.26-.42.46-.52.51.28.87.88.93,1.54.02.22,0,.42-.05.59l-.06.21.28-.27.77-.82-.06-.04c-.44-.29-.76-.84-.83-1.45-.09-.67.11-1.22.51-1.46.53.25.93.82,1.02,1.47.03.2.03.4,0,.6l-.03.21.97-1.15-.06-.04c-.46-.26-.81-.78-.94-1.4-.14-.65.03-1.21.43-1.48.54.21.98.77,1.11,1.4.04.19.05.39.03.59l-.02.21.66-.86c.06-.08.09-.13.09-.13l.14-.21-.06-.03c-.47-.23-.87-.74-1.03-1.34-.09-.32-.1-.64-.03-.91.03-.13.08-.24.15-.35.05-.1.13-.18.21-.25.55.17,1.03.7,1.21,1.33.05.19.07.39.06.59v.21s.4-.6.4-.6c.07-.11.14-.22.19-.3.05-.08.08-.14.08-.14l.13-.22-.06-.03c-.49-.2-.91-.68-1.11-1.26-.11-.32-.13-.63-.08-.9.06-.28.17-.49.32-.63.56.14,1.07.63,1.29,1.26.07.18.1.36.1.58v.21s.19-.31.19-.31c.04-.06.11-.18.18-.31l.36-.68-.07-.02c-.5-.17-.95-.62-1.18-1.19-.13-.31-.17-.62-.13-.9.03-.27.12-.49.27-.64.57.1,1.1.56,1.37,1.18.09.19.13.39.14.58v.21s.11-.18.11-.18c0,0,.13-.23.23-.47l.32-.7-.07-.02c-.51-.14-.99-.57-1.25-1.12-.14-.3-.21-.61-.18-.89.01-.27.09-.5.23-.66.57.07,1.13.5,1.43,1.09.1.19.16.38.18.57l.02.22.16-.35c.03-.06.05-.13.08-.21.02-.04.03-.08.05-.12l.28-.72h-.07c-.51-.12-1.02-.52-1.31-1.06-.16-.29-.24-.6-.23-.88,0-.29.08-.51.2-.68.57.04,1.16.43,1.49,1.01.1.17.16.34.2.56l.04.21.13-.34c.04-.09.08-.21.12-.34l.23-.73h-.07c-.52-.09-1.05-.46-1.37-.98-.18-.28-.28-.59-.29-.87,0-.13.01-.25.05-.39.03-.11.07-.21.13-.3.57,0,1.19.38,1.54.93.1.17.18.35.23.54l.05.21.22-.7.19-.75h-.07c-.52-.06-1.07-.4-1.42-.91-.37-.54-.44-1.14-.18-1.55.57-.02,1.2.31,1.57.85.11.16.2.34.26.53l.06.2.26-1.05c.03-.1.03-.16.03-.16l.05-.25h-.07c-.52-.03-1.09-.35-1.47-.83-.41-.52-.51-1.12-.27-1.54.58-.05,1.21.25,1.61.77.12.16.22.33.29.52l.07.2.28-1.48h-.07c-.53,0-1.08-.28-1.5-.76-.44-.5-.57-1.1-.36-1.53.57-.08,1.22.2,1.65.7.13.15.24.32.32.51l.08.2.19-1.49h-.07c-.53.03-1.11-.23-1.52-.69-.11-.12-.21-.26-.28-.4-.08-.13-.14-.27-.17-.41-.07-.26-.06-.51.03-.71.57-.1,1.22.14,1.69.63.14.15.26.31.35.5l.1.19.11-1.5h-.07c-.53.05-1.12-.18-1.56-.62-.24-.24-.4-.51-.48-.79-.04-.13-.05-.26-.04-.39,0-.12.02-.23.06-.33.55-.12,1.24.1,1.71.56.14.14.26.3.35.48l.1.19.05-.73c.01-.26.01-.52.01-.52v-.25s-.06,0-.06,0c-.52.07-1.13-.15-1.59-.57-.49-.45-.69-1.03-.52-1.49.56-.15,1.23.05,1.72.49.15.13.27.29.37.47l.11.18.03-1.5h-.07c-.53.1-1.12-.09-1.6-.49-.52-.43-.75-1.01-.61-1.47.55-.17,1.23,0,1.74.43.15.13.29.28.4.45l.12.18-.05-1.5h-.07c-.52.12-1.14-.05-1.62-.43-.5-.4-.74-.96-.63-1.45.54-.18,1.23-.04,1.77.37.15.12.29.27.4.44l.12.18-.03-.73-.06-.73-.02-.02c-.41-.31-.68-.81-.73-1.37-.06-.67.19-1.3.66-1.66.51.24.87.83.93,1.51.05.57-.12,1.11-.48,1.48l-.02.02.06.73.03.73.1-.19c.1-.18.22-.35.37-.49.46-.49,1.14-.73,1.68-.62.21.47.02,1.11-.47,1.61-.44.44-1.04.67-1.58.6h-.07s.05,1.5.05,1.5l.1-.18c.1-.18.22-.34.36-.48.49-.47,1.17-.69,1.71-.56.18.5-.02,1.13-.5,1.6-.44.42-1.07.63-1.6.54h-.07s-.03,1.5-.03,1.5l.11-.18c.11-.17.24-.33.39-.46.51-.45,1.21-.65,1.74-.5.15.51-.08,1.14-.58,1.58-.46.41-1.08.59-1.61.48h-.07s0,.24,0,.24c0,0,0,.26-.01.52l-.05.74.12-.18c.12-.17.26-.32.42-.45.53-.44,1.21-.61,1.74-.44Z"/>
    <path class="cls-2" d="M55.8,10.28l-.27-2.43-2.44-.12c-4.04-.2-11.74-1.11-17.89-4.94-.49-.31-1.55-1.07-2.13-1.51l-1.72-1.28-1.72,1.28c-.74.55-1.69,1.23-2.14,1.51-6.15,3.84-13.85,4.74-17.89,4.94l-2.44.12-.27,2.43c-2.1,18.7,4.1,29.4,9.68,35.08,6.26,6.38,13.33,8.19,14.11,8.38l.66.16.66-.16c.79-.19,7.85-2,14.11-8.38,5.58-5.68,11.78-16.38,9.68-35.08ZM45.09,44.35c-5.98,6.09-12.67,7.81-13.42,7.99l-.33.08-.33-.08c-.74-.18-7.43-1.9-13.42-7.99-5.36-5.46-11.32-15.77-9.28-33.91l.14-1.21,1.22-.06c4.18-.21,12.15-1.15,18.58-5.16.52-.32,1.53-1.05,2.23-1.58l.86-.64.86.64c.52.39,1.66,1.22,2.23,1.58,6.43,4.01,14.4,4.95,18.58,5.16l1.22.06.14,1.21c2.04,18.14-3.92,28.45-9.28,33.91Z"/>
    <g>
      <path class="cls-2" d="M20.06,35.95s0,0-.01,0c0,0-.05,2.38,1.99,3.49,2.05,1.11,2.05,3.22,2.05,3.22,0,0-4.38-2.33-6.49-6.92-2.12-4.6-2.21-4.28-2.21-4.28-.13.43.1,1.27.16,1.7.5,3.98,1.83,7.62,4.4,10.57,2.46,2.83,5.46,4.57,8.22,5.85-.01,0,.38-1.68.4-1.79.33-2.5-.25-5.56-1.95-7.38-1.77-1.89-4.41-3.13-6.55-4.45Z"/>
      <path class="cls-2" d="M45.09,35.74c-2.12,4.6-6.49,6.92-6.49,6.92,0,0,0-2.11,2.05-3.22,2.05-1.11,1.99-3.49,1.99-3.49,0,0,0,0-.01,0-2.14,1.32-4.78,2.56-6.55,4.45-1.69,1.82-2.28,4.87-1.95,7.38.01.11.41,1.78.4,1.79,2.76-1.28,5.76-3.02,8.22-5.85,2.57-2.95,3.9-6.6,4.4-10.57.05-.43.29-1.27.16-1.7,0,0-.1-.32-2.21,4.28Z"/>
    </g>
    <g>
      <path class="cls-4" d="M38.16,33.41c-.47-.38-1.02-.48-1.6-.48-.14,0-.21-.04-.25-.18-.22-.63-.85-1-1.51-.9-.61.1-1.1.63-1.15,1.27-.04.61.36,1.2.97,1.39.6.19,1.27-.06,1.57-.61.11-.21.23-.3.45-.25.08,0,.15,0,.22,0,.71.04,1.18.45,1.3,1.1.11.62-.22,1.14-.8,1.24-.23.04-.46,0-.69-.05-.62-.17-1.24-.15-1.84.05-.14.05-.2.02-.27-.12-.33-.74-.93-1.06-1.73-.95-.53.08-1,.31-1.44.6-.11.07-.18.06-.28-.01-.31-.23-.65-.42-1.03-.53-.79-.23-1.44.04-1.83.77-.03.05-.06.1-.07.15-.04.13-.1.17-.24.11-.33-.12-.68-.17-1.04-.18-.37,0-.72.09-1.08.16-.6.11-1.08-.15-1.24-.67-.2-.68.2-1.4.88-1.59.24-.07.49-.07.74-.08.15,0,.24.04.31.19.27.53.83.81,1.42.73.55-.08,1-.51,1.13-1.07.12-.55-.12-1.12-.6-1.43-.73-.47-1.73-.13-2.02.69-.05.14-.11.2-.26.19-.16-.01-.33.01-.49.03-1.26.12-1.99,1.18-1.84,2.26.08.59.37,1.04.91,1.31.48.24.98.22,1.48.08.57-.15,1.11-.09,1.65.12.09.03.14.09.16.18.11.61.46,1.07.92,1.45.1.09.12.14.04.26-.35.54-.09,1.31.53,1.46.3.07.36.24.41.47,0,.04.02.08.03.11.18.68.32,1.37.54,2.04.09.29.2.58.42.8.27.28.63.28.9-.01.15-.16.24-.37.32-.57.16-.42.27-.86.38-1.29.03-.14.08-.22.24-.21.11,0,.22-.05.32-.1.63-.35.7-1.21.14-1.66-.07-.05-.14-.09-.1-.2.09-.24.18-.48.31-.71.06-.11.14-.15.27-.15.66,0,1.12-.54.98-1.19-.04-.18,0-.34.02-.51,0-.06.04-.12.11-.14.38-.14.76-.23,1.17-.2.34.02.66.15,1,.17.51.03.98-.08,1.36-.44.79-.75.7-2.15-.18-2.86ZM35.02,33.87c-.36,0-.65-.29-.66-.65,0-.37.29-.67.66-.67.36,0,.65.3.65.66,0,.36-.29.66-.65.66ZM27.69,32.54c.36,0,.66.29.66.67,0,.36-.29.66-.65.66-.34,0-.66-.31-.66-.66,0-.35.3-.66.65-.67ZM33.88,36.61c-.3-.04-.58.02-.82.23-.36.32-.45.83-.21,1.24.06.1.06.16,0,.26-.19.29-.31.62-.42.95-.04.1-.09.17-.19.21-.64.27-.82,1-.4,1.56.04.05.08.09.06.17-.13.54-.25,1.08-.48,1.6,0,.02-.02.04-.06.08-.14-.26-.22-.51-.28-.76-.19-.71-.37-1.43-.55-2.14-.03-.1.02-.15.08-.22.45-.53.23-1.35-.43-1.58-.04-.01-.08-.03-.11-.03-.44.01-.64-.35-.91-.59-.26-.23-.41-.53-.45-.88-.04-.34.22-.85.53-1.02.18-.1.37-.09.56-.04.5.12.9.41,1.26.75.12.11.19.12.32.01.44-.35.93-.64,1.49-.76.71-.16,1.03.32,1.15.84.02.1,0,.16-.13.14Z"/>
      <g class="cls-5">
        <rect class="cls-1" x="28.67" y="35.47" width=".52" height="7.43"/>
        <rect class="cls-1" x="29.19" y="35.47" width="1.08" height="7.43"/>
        <rect class="cls-1" x="30.27" y="35.47" width="1.08" height="7.43"/>
        <rect class="cls-1" x="31.34" y="35.47" width="1.08" height="7.43"/>
        <rect class="cls-1" x="32.42" y="35.47" width="1.08" height="7.43"/>
        <rect class="cls-1" x="33.5" y="35.47" width=".54" height="7.43"/>
        <rect class="cls-1" x="27.04" y="32.54" width="1.07" height="1.34"/>
        <rect class="cls-1" x="28.11" y="32.54" width=".24" height="1.34"/>
        <rect class="cls-1" x="34.36" y="32.54" width=".21" height="1.33"/>
        <rect class="cls-1" x="34.57" y="32.54" width="1.08" height="1.33"/>
        <rect class="cls-1" x="35.65" y="32.54" width=".02" height="1.33"/>
        <rect class="cls-1" x="23.68" y="31.58" width=".13" height="12.2"/>
        <rect class="cls-1" x="23.81" y="31.58" width="1.08" height="12.2"/>
        <rect class="cls-1" x="24.88" y="31.58" width="1.08" height="12.2"/>
        <rect class="cls-1" x="25.96" y="31.58" width="1.08" height="12.2"/>
        <rect class="cls-1" x="27.04" y="31.58" width="1.08" height="12.2"/>
        <rect class="cls-1" x="28.11" y="31.58" width="1.08" height="12.2"/>
        <rect class="cls-1" x="29.19" y="31.58" width="1.08" height="12.2"/>
        <rect class="cls-1" x="30.27" y="31.58" width="1.08" height="12.2"/>
        <rect class="cls-1" x="31.34" y="31.58" width="1.08" height="12.2"/>
        <rect class="cls-1" x="32.42" y="31.58" width="1.08" height="12.2"/>
        <rect class="cls-1" x="33.5" y="31.58" width="1.08" height="12.2"/>
        <rect class="cls-1" x="34.57" y="31.58" width="1.08" height="12.2"/>
        <rect class="cls-1" x="35.65" y="31.58" width="1.08" height="12.2"/>
        <rect class="cls-1" x="36.73" y="31.58" width="1.08" height="12.2"/>
        <rect class="cls-1" x="37.8" y="31.58" width="1.08" height="12.2"/>
        <rect class="cls-1" x="38.88" y="31.58" width=".25" height="12.2"/>
      </g>
    </g>
    <g>
      <path class="cls-1" d="M36.87,10.2c-.3-.71-.74-1.36-1.29-1.91-.55-.55-1.19-.98-1.91-1.29-.74-.31-1.53-.47-2.34-.47s-1.6.16-2.34.47c-.71.3-1.36.73-1.91,1.29-.55.55-.98,1.19-1.29,1.91-.31.74-.47,1.53-.47,2.34s.16,1.6.47,2.34c.3.72.74,1.36,1.29,1.91s1.19.98,1.91,1.29c.74.31,1.53.47,2.34.47s1.6-.16,2.34-.47c.72-.3,1.36-.73,1.91-1.29s.98-1.19,1.29-1.91c.31-.74.47-1.52.47-2.34s-.16-1.6-.47-2.34ZM31.34,17.97c-2.5,0-4.62-1.7-5.25-4.01,0-.03-.01-.05-.02-.08-.11-.43-.17-.89-.17-1.35,0-.77.16-1.5.45-2.16,0,0,0,0,0-.01.84-1.92,2.76-3.27,4.99-3.27,3,0,5.44,2.44,5.44,5.44s-2.44,5.44-5.44,5.44Z"/>
      <path class="cls-1" d="M30.21,13.47c-.25-.16-.47-.26-.64-.32-.18-.06-.4-.14-.69-.13-.14,0-.17.02-.69.13-.37.07-.56.11-.61.11-.15,0-.21-.02-.9-.13-.07-.01-.22-.03-.36.04,0,0-.07.03-.12.08-.14.13-.17.41-.08.71-.14-.23-.55-.96-.45-1.95.09-.91.55-1.51.74-1.72-.08.21-.18.54-.17.94,0,.18.02.56.24.95.07.12.16.28.34.43.08.06.3.23.63.28.15.02.27,0,.49-.02.23-.03.29-.06.49-.09.03,0,.3-.05.58-.04.51.02.89.2,1.11.31.17.08.39.21.63.41-.04-.02-.13-.07-.25-.06-.13,0-.22.05-.26.08Z"/>
      <path class="cls-1" d="M29.44,16.43s-.11,0-.26,0c-.12,0-.14,0-.19,0-.09-.02-.08-.03-.19-.06-.12-.03-.17-.02-.24-.07-.05-.03-.06-.07-.06-.08-.02-.04-.01-.1,0-.13.04-.07.12-.05.34-.11.06-.01.12-.03.25-.07.16-.05.23-.08.25-.08.13-.05.2-.09.22-.11.07-.04.11-.07.13-.1.04-.05.02-.08.06-.27.02-.1.03-.12.04-.2,0-.06,0-.11,0-.15.05-.03.1-.06.16-.09.04-.02.08-.04.12-.06,0,.14.02.26.04.36.02.13.04.24.06.3,0,.03.02.08.03.15.03.13.04.13.05.19,0,.03.02.13.02.26,0,.1,0,.15-.04.22-.01.03-.05.1-.12.14-.06.03-.13.03-.24.01-.07,0-.07-.01-.16-.03-.11-.02-.19-.02-.28-.02Z"/>
      <path class="cls-1" d="M32.68,12.39c-.27.16-.46.32-.62.45-.14.11-.25.21-.34.29-.13-.14-.23-.26-.32-.36-.28-.33-.17-.22-.32-.39,0,0-.04-.04-.13-.18-.04-.05-.06-.09-.07-.15,0-.02,0-.04,0-.11,0-.13.02-.16.02-.24,0-.13,0-.16-.02-.18,0-.01-.05-.08-.11-.08-.04,0-.08.03-.09.06-.02.03,0,.05-.02.11,0,.03-.02.05-.03.06-.05-.06-.13-.14-.21-.22,0,0-.03-.03-.1-.09-.07-.06-.08-.07-.11-.08-.02,0-.08-.03-.13,0-.03.02-.05.06-.04.1.01.06.08.06.13.14.01.03.03.07.01.08,0,0-.02,0-.06,0-.09-.04-.11-.09-.18-.11-.04-.01-.07,0-.08,0-.02,0-.05.01-.06.04-.02.04,0,.08,0,.09.02.05.06.08.08.08.05.03.08.02.11.05.01.02.02.04,0,.05-.02.02-.07,0-.11-.02-.05-.02-.06-.03-.08-.04-.04,0-.07.02-.09.05,0,.01-.03.05-.02.09.01.06.08.08.08.08.04.01.07,0,.11.01.02,0,.04.02.04.04,0,.03-.16-.02-.22.05-.02.03-.02.06-.02.07,0,.05.03.08.04.08.04.03.08.04.14.05.1.02.17.03.24.06.04.02.07.05.14.11.01,0,.11.1.18.18.14.16.29.42.42.65.08.15.17.32.34.55.14.19.22.26.32.3.15.06.29.05.41.03.12-.02.28-.06.61-.25.34-.2.55-.38.55-.37,0,0-.18.18-.45.36-.5.34-.88.4-.97.41-.08.01-.14.02-.18.02.07.15.15.33.22.54.07.22.11.42.13.6-.03-.11-.43-1.35-.95-1.75-.09-.07-.26-.2-.48-.18-.12,0-.21.06-.35.14-.3.18-.49.4-.53.44-.12.14-.24.27-.35.41-.02.03-.08.1-.17.13-.06.02-.11.02-.18,0-.19-.02-.29-.03-.36-.05-.16-.04-.28-.08-.39-.13-.22-.09-.3-.14-.39-.1-.04.02-.08.07-.09.12,0,.05.02.08.05.13.04.06.07.07.12.12.06.06.09.11.12.15.12.16.25.15.51.36.14.12.2.18.2.18.08.08.12.13.2.15.06.02.12.03.16.02.18-.02.22-.25.4-.46.14-.16.21-.15.63-.36.14-.07.34-.19.57-.37-.05.05-.11.11-.18.17-.09.08-.18.15-.26.2.01.08.03.2.06.34.07.38.12.66.23.92.09.22.31.78.84,1.02.17.08.33.09.38.1.25.02.48-.04.76-.18.86-.42,1.36-1.08,1.45-1.2.17-.23.28-.43.38-.61.19-.35.4-.73.5-1.27.07-.34.12-.59.06-.92-.06-.32-.17-.38-.25-.79-.07-.36-.04-.64-.04-.71.04-.34.12-.39.19-.71.03-.13.14-.71-.12-1.32-.05-.12-.17-.4-.43-.64-.49-.47-1.34-.69-2.08-.38-.08.04-.72.32-1,1-.06.15-.26.62-.1,1.12.11.36.4.66.28.92-.03.06-.11.19-.06.28.02.04.06.06.09.08.07.04.13.05.17.05,0,.01,0,.03,0,.05,0,.06,0,.09.01.12.02.05.07.08.08.08.06.03.11.02.13.01,0,.04.01.06.02.07.04.05.13.07.22.04.03.07.09.17.19.21.19.07.38-.11.66-.25.18-.08.45-.17.84-.17-.13,0-.32.04-.54.12-.14.06-.24.11-.4.21Z"/>
    </g>
    <g>
      <path class="cls-1" d="M50.97,19.97s-.09-.06-.15-.06h-.04s-.08,0-.12,0h-11.8c-.28,0-.32.04-.32.33v8.92c0,.27.04.31.31.31h11.87c.27,0,.31-.04.31-.31v-8.97s0-.04,0-.06c0-.06-.01-.12-.05-.15ZM50.43,28.75s0,.08,0,.11c-.02,0-.06,0-.1,0h-11.11s-.08,0-.1,0c0-.02,0-.06,0-.1v-8.16s0-.07,0-.09c.02,0,.06,0,.1,0h11.1s.09,0,.11,0c0,.02,0,.07,0,.11v8.13Z"/>
      <path class="cls-1" d="M48.32,24.44c-.07-.07-.12-.07-.19,0-.33.28-.69.52-1.07.73-.68.36-1.39.58-2.16.64-.11,0-.18-.01-.18-.14,0-.11,0-.19.15-.2,1.13-.1,2.12-.54,3-1.26.09-.07.1-.12.01-.2-.43-.41-.86-.83-1.28-1.25-.13-.13-.16-.13-.3,0-.41.36-.88.56-1.43.58-.61.02-1.14-.17-1.6-.58-.14-.12-.16-.12-.3.01-.28.27-.55.54-.83.8-.1.09-.1.15,0,.24.57.49,1.25.74,1.98.89.13.03.14.09.11.19-.02.09-.02.19-.17.15-.82-.16-1.57-.45-2.2-1.02-.08-.07-.13-.06-.19,0-.32.31-.64.62-.96.93-.11.11-.11.16,0,.28,1.13,1.09,2.49,1.63,4.05,1.67.33,0,.65-.03.97-.09,1.21-.21,2.25-.74,3.12-1.6.09-.09.09-.17,0-.26-.18-.17-.36-.34-.53-.51Z"/>
      <path class="cls-1" d="M44.77,22.88c.45-.02.85-.15,1.2-.45.1-.08.13-.15,0-.24-.02-.01-.04-.03-.05-.05-.08-.1-.14-.1-.25-.01-.52.43-1.23.45-1.76.05-.2-.15-.19-.14-.38.02-.09.08-.07.13,0,.21.35.31.76.45,1.22.47Z"/>
      <path class="cls-1" d="M42.01,27.06c-.67,0-1.35,0-2.02,0-.17,0-.18.08-.17.21,0,.12,0,.22.17.21.33-.01.67,0,1,0s.68,0,1.02,0c.17,0,.18-.08.18-.21,0-.12,0-.22-.17-.21Z"/>
      <path class="cls-1" d="M42.02,27.78c-.34,0-.68,0-1.02,0-.34,0-.68,0-1.02,0-.15,0-.17.07-.17.19,0,.21,0,.23.17.23.68,0,1.36,0,2.04,0,.17,0,.16-.1.16-.21,0-.11.01-.21-.16-.21Z"/>
      <path class="cls-1" d="M49.49,21.1c-.51,0-1.02,0-1.52,0-.14,0-.2.04-.18.18,0,.02,0,.05,0,.07-.02.13.05.17.17.16.26,0,.51,0,.77,0,.26,0,.52,0,.78,0,.05,0,.11.02.13-.03.05-.1.04-.22.01-.33-.02-.07-.1-.06-.16-.06Z"/>
    </g>
    <g>
      <path class="cls-1" d="M24.62,21.28c.21-.35.31-.7.28-1.06-.05-.72-.65-1.34-1.37-1.41-.05,0-.1,0-.15,0-.34,0-.67.12-.94.32-.05-.04-.1-.06-.16-.06-.06,0-.12.02-.16.07l-.56.53c-.77-.47-1.68-.75-2.65-.75-2.8,0-5.06,2.27-5.06,5.06,0,.93.25,1.81.69,2.55l-.73.73c-.09.09-.09.24,0,.34l.03.03-.52.52s-.03.03-.04.05l-.33.59c-.05.09-.04.21.04.28.05.05.11.07.17.07.04,0,.08,0,.12-.03l.59-.33s.04-.03.05-.04l.52-.52.03.03s.11.07.17.07.12-.02.17-.07l.62-.62c.91.86,2.14,1.39,3.49,1.39,1.72,0,3.25-.86,4.16-2.18.11.02.22.03.33.03.42,0,.82-.11,1.15-.33l-.12-.21c-.3.19-.66.29-1.02.29-.3,0-.6-.07-.87-.21-.63-.32-1.08-1.01-1.14-1.75-.05-.7.23-1.43.75-1.96.27-.27.59-.48.9-.68.19-.12.39-.25.56-.39.26-.2.85-.73.8-1.4-.04-.48-.45-.9-.93-.96-.27-.03-.55.07-.77.24,0,0-.02-.02-.02-.03l-.14-.14s-.01-.01-.02-.02c.27-.23.63-.35.98-.32.6.06,1.11.59,1.16,1.19.02.31-.06.61-.25.92-.15.25-.38.49-.65.7-.19.15-.39.28-.58.4-.31.21-.61.4-.86.65-.47.47-.72,1.13-.67,1.76.05.66.44,1.26,1,1.55.52.27,1.18.23,1.65-.08l-.12-.21c-.2.13-.43.21-.69.23.31-.66.49-1.4.49-2.18,0-.62-.11-1.2-.31-1.75.08-.06.16-.12.24-.18.29-.23.54-.49.71-.76ZM22.94,19.94c.08-.08.09-.2.03-.29.13-.08.27-.12.41-.12.03,0,.05,0,.07,0,.36.04.69.38.71.74.04.55-.48,1.01-.71,1.19-.03.03-.07.05-.1.08-.23-.42-.52-.8-.85-1.14l.43-.46ZM21.15,24.7c.06.82.56,1.59,1.27,1.95.11.06.23.1.35.14-.87,1.19-2.28,1.96-3.86,1.96-1.28,0-2.43-.5-3.29-1.31l1.39-1.39.23.23s.1.07.17.07.12-.03.17-.07l1.26-1.26c.09-.09.09-.24,0-.34l-.08-.08.89-.89c.09-.09.09-.23.01-.33l2.65-2.79c.32.32.6.69.82,1.1-.07.05-.14.09-.21.14-.32.21-.65.43-.94.72-.57.57-.88,1.38-.82,2.15ZM18.67,24.86l-1.26,1.26-1.47-1.47,1.26-1.26,1.47,1.47ZM13.97,27.43l2.28-2.28.66.66-2.28,2.28-.66-.66ZM18.91,19.19c.89,0,1.73.24,2.44.67l-2.68,2.55s-.1-.06-.16-.06c-.06,0-.12.03-.17.07l-.89.89-.08-.08s-.11-.07-.17-.07-.12.02-.17.07l-1.26,1.26s-.07.11-.07.17.03.12.07.17l.23.23-1.27,1.27c-.39-.69-.62-1.49-.62-2.35,0-2.64,2.14-4.78,4.78-4.78ZM13.49,28.32l.6-.6.26.26-.6.6-.59.33.33-.59ZM19.48,23.55l-.97.97-.97-.97.97-.97.97.97ZM22.59,19.61c.09.1.1.25,0,.35l-3.18,3.35-.66-.66,3.35-3.18c.1-.09.25-.09.35,0l.14.14ZM23.18,26.13c-.15-.02-.29-.07-.42-.14-.48-.25-.83-.78-.87-1.35-.04-.56.18-1.15.61-1.57.23-.23.52-.42.82-.62.04-.03.07-.05.11-.07.17.5.27,1.03.27,1.59,0,.78-.19,1.51-.52,2.16Z"/>
      <path class="cls-1" d="M21.39,19.79c-.75-.44-1.61-.68-2.48-.68-2.68,0-4.86,2.18-4.86,4.86,0,.84.22,1.66.63,2.39l.05.09,1.4-1.4-.29-.29s-.05-.07-.05-.11.02-.08.05-.11l1.26-1.26c.06-.06.17-.06.23,0l.14.14.94-.94c.06-.06.16-.06.22,0l.05.05,2.81-2.67-.09-.05ZM17.45,23.19l-.03-.03c-.12-.12-.33-.12-.45,0l-1.26,1.26c-.06.06-.09.14-.09.22s.03.16.09.22l.18.18-1.14,1.14c-.36-.68-.56-1.44-.56-2.22,0-2.59,2.11-4.7,4.71-4.7.81,0,1.61.21,2.31.6l-2.56,2.43c-.12-.06-.28-.04-.37.06l-.83.83ZM23.19,21.67c-.22-.41-.5-.79-.83-1.12l-.06-.06-2.76,2.9.05.05c.05.06.05.16,0,.22l-.94.95.14.14c.06.06.06.16,0,.23l-1.26,1.26c-.06.06-.17.06-.23,0l-.29-.29-1.5,1.5.06.06c.91.86,2.09,1.33,3.35,1.33,1.54,0,3.01-.75,3.92-1.99l.07-.09-.11-.03c-.12-.04-.23-.08-.34-.14-.68-.35-1.16-1.09-1.22-1.88-.06-.75.24-1.53.8-2.09.28-.28.61-.5.93-.7h0l.21-.14.06-.04-.03-.06ZM22.87,21.78c-.32.21-.66.43-.95.72-.59.59-.9,1.42-.84,2.21.07.85.58,1.64,1.31,2.01.08.04.17.08.26.11-.89,1.16-2.28,1.84-3.73,1.84-1.18,0-2.31-.44-3.18-1.24l1.28-1.28.18.18c.12.12.33.12.45,0l1.26-1.26c.12-.12.12-.32,0-.45l-.03-.03.83-.83c.1-.1.12-.25.06-.37l2.55-2.69c.28.29.52.61.71.96-.05.03-.1.07-.15.1h0ZM23.5,22.36l-.03-.1-.19.13c-.31.2-.59.39-.83.63-.44.44-.67,1.05-.63,1.63.05.6.4,1.16.91,1.42.14.07.29.12.45.14h.06s.03-.04.03-.04c.35-.68.52-1.42.52-2.2,0-.55-.09-1.1-.27-1.61ZM22.79,25.93c-.46-.23-.78-.74-.83-1.29-.04-.54.18-1.1.58-1.51.23-.23.51-.41.81-.61l.03-.02c.15.47.23.96.23,1.47,0,.73-.16,1.43-.48,2.08-.12-.02-.24-.06-.34-.12ZM24.24,20.27c-.03-.4-.39-.77-.78-.81-.18-.02-.37.03-.54.13l-.07.04.04.07c.04.06.03.14-.02.2l-.49.51.05.05c.33.33.62.71.84,1.12l.05.08.07-.05s.07-.05.1-.08c.24-.18.78-.67.74-1.26ZM23.38,21.43c-.21-.37-.47-.72-.77-1.03l.38-.4c.08-.08.1-.2.07-.31.12-.06.25-.09.38-.07.32.04.62.34.64.67.04.51-.46.95-.68,1.12,0,0-.02.02-.03.02ZM24.24,20.27c-.03-.4-.39-.77-.78-.81-.18-.02-.37.03-.54.13l-.07.04.04.07c.04.06.03.14-.02.2l-.49.51.05.05c.33.33.62.71.84,1.12l.05.08.07-.05s.07-.05.1-.08c.24-.18.78-.67.74-1.26ZM23.38,21.43c-.21-.37-.47-.72-.77-1.03l.38-.4c.08-.08.1-.2.07-.31.12-.06.25-.09.38-.07.32.04.62.34.64.67.04.51-.46.95-.68,1.12,0,0-.02.02-.03.02ZM22.36,20.55l-.06-.06-2.76,2.9.05.05c.05.06.05.16,0,.22l-.94.95.14.14c.06.06.06.16,0,.23l-1.26,1.26c-.06.06-.17.06-.23,0l-.29-.29-1.5,1.5.06.06c.91.86,2.09,1.33,3.35,1.33,1.54,0,3.01-.75,3.92-1.99l.07-.09-.11-.03c-.12-.04-.23-.08-.34-.14-.68-.35-1.16-1.09-1.22-1.88-.06-.75.24-1.53.8-2.09.28-.28.61-.5.93-.7h0l.21-.14.06-.04-.03-.06c-.22-.41-.5-.79-.83-1.12ZM22.87,21.78c-.32.21-.66.43-.95.72-.59.59-.9,1.42-.84,2.21.07.85.58,1.64,1.31,2.01.08.04.17.08.26.11-.89,1.16-2.28,1.84-3.73,1.84-1.18,0-2.31-.44-3.18-1.24l1.28-1.28.18.18c.12.12.33.12.45,0l1.26-1.26c.12-.12.12-.32,0-.45l-.03-.03.83-.83c.1-.1.12-.25.06-.37l2.55-2.69c.28.29.52.61.71.96-.05.03-.1.07-.15.1h0ZM23.5,22.36l-.03-.1-.19.13c-.31.2-.59.39-.83.63-.44.44-.67,1.05-.63,1.63.05.6.4,1.16.91,1.42.14.07.29.12.45.14h.06s.03-.04.03-.04c.35-.68.52-1.42.52-2.2,0-.55-.09-1.1-.27-1.61ZM22.79,25.93c-.46-.23-.78-.74-.83-1.29-.04-.54.18-1.1.58-1.51.23-.23.51-.41.81-.61l.03-.02c.15.47.23.96.23,1.47,0,.73-.16,1.43-.48,2.08-.12-.02-.24-.06-.34-.12ZM18.91,19.11c-2.68,0-4.86,2.18-4.86,4.86,0,.84.22,1.66.63,2.39l.05.09,1.4-1.4-.29-.29s-.05-.07-.05-.11.02-.08.05-.11l1.26-1.26c.06-.06.17-.06.23,0l.14.14.94-.94c.06-.06.16-.06.22,0l.05.05,2.81-2.67-.09-.05c-.75-.44-1.61-.68-2.48-.68ZM17.45,23.19l-.03-.03c-.12-.12-.33-.12-.45,0l-1.26,1.26c-.06.06-.09.14-.09.22s.03.16.09.22l.18.18-1.14,1.14c-.36-.68-.56-1.44-.56-2.22,0-2.59,2.11-4.7,4.71-4.7.81,0,1.61.21,2.31.6l-2.56,2.43c-.12-.06-.28-.04-.37.06l-.83.83ZM24.98,20.21c-.06-.75-.69-1.4-1.44-1.48-.38-.04-.77.07-1.1.29-.12-.07-.28-.05-.38.05l-.52.49c-.8-.48-1.71-.73-2.64-.73-2.84,0-5.14,2.31-5.14,5.14,0,.89.23,1.77.67,2.54l-.69.69c-.12.12-.12.3-.02.43l-.47.47s-.04.04-.05.07l-.33.59c-.07.12-.05.28.05.38.06.06.14.09.22.09.05,0,.11-.01.15-.04l.59-.33s.05-.03.07-.05l.47-.47c.12.1.31.09.42-.02l.56-.56c.95.88,2.19,1.36,3.49,1.36,1.67,0,3.23-.81,4.2-2.17.53.07,1.06-.05,1.48-.32l.06-.04-.2-.34-.07.05c-.52.33-1.26.37-1.82.08-.61-.31-1.04-.98-1.1-1.69-.05-.68.22-1.39.73-1.9.26-.27.58-.47.89-.67.19-.12.39-.25.57-.39.27-.21.88-.76.83-1.46-.04-.51-.49-.98-1-1.03-.26-.03-.54.05-.77.22l-.07-.07c.25-.19.56-.27.85-.24.57.06,1.04.55,1.09,1.12.02.29-.06.58-.24.87-.15.24-.37.47-.63.68-.18.14-.38.27-.58.4-.32.21-.62.4-.87.66-.49.49-.75,1.17-.7,1.82.05.68.46,1.31,1.04,1.61.55.28,1.23.25,1.73-.09l.06-.04-.2-.34-.07.05c-.15.1-.33.17-.52.2.29-.66.44-1.36.44-2.09,0-.59-.1-1.17-.29-1.72.07-.05.13-.1.2-.15.3-.23.55-.5.72-.78h0c.22-.36.32-.73.29-1.11ZM23.62,22.16l-.05.03.02.06c.2.55.31,1.13.31,1.72,0,.75-.16,1.47-.48,2.14l-.06.12h.13c.24-.02.47-.09.66-.2l.04.07c-.44.26-1.04.28-1.5.04-.53-.27-.91-.85-.96-1.48-.05-.6.2-1.24.65-1.7.25-.25.54-.44.85-.64.19-.13.39-.26.58-.4.28-.22.51-.47.67-.72.2-.32.28-.64.26-.96-.05-.64-.59-1.2-1.23-1.26-.37-.04-.75.08-1.04.33l-.06.05c-.12-.05-.26-.03-.36.06l-3.35,3.18-.04.04-.15-.15-1.06,1.06-.25-.25-1.37,1.37.4.4-2.37,2.37.2.2-.64.64-.41.72s-.03-.11,0-.16l.33-.59s.02-.03.03-.03l.58-.58-.09-.09c-.06-.06-.06-.16,0-.23l.77-.77-.03-.05c-.44-.76-.68-1.63-.68-2.52,0-2.75,2.24-4.99,4.99-4.99.92,0,1.83.26,2.61.74l.05.03.6-.57c.06-.05.16-.06.22,0l.05.04.05-.04c.3-.23.68-.34,1.03-.3.68.07,1.25.66,1.3,1.34,0,.04,0,.07,0,.11,0,.3-.09.61-.28.9-.16.26-.4.52-.69.74-.08.06-.16.12-.24.18ZM22.71,19.64l.05-.04c.21-.17.47-.25.71-.23.44.05.82.44.86.88.05.62-.52,1.14-.77,1.33-.18.14-.37.26-.56.39-.31.2-.64.41-.91.69-.54.54-.83,1.3-.77,2.02.06.77.52,1.48,1.18,1.82.58.3,1.35.28,1.91-.05l.04.07c-.39.23-.88.32-1.36.25h-.05s-.03.03-.03.03c-.93,1.34-2.46,2.14-4.1,2.14-1.29,0-2.51-.49-3.44-1.37l-.06-.05-.67.67c-.06.06-.17.06-.23,0l-.09-.09-.58.58s-.02.02-.04.03l-.59.33s-.11.03-.16,0l.71-.4.65-.65.2.2,2.37-2.37.4.4,1.37-1.37-.25-.25,1.06-1.06-.15-.15,3.22-3.39c.1-.1.12-.25.06-.37ZM18.87,22.65l3.29-3.13c.07-.06.17-.06.24,0l.14.14c.07.07.07.17,0,.24l-3.13,3.29-.54-.54ZM17.65,23.55l.86-.86.86.86-.86.86-.86-.86ZM17.41,26l-1.36-1.36,1.15-1.15,1.36,1.36-1.15,1.15ZM14.64,27.98l-.55-.55,2.17-2.17.55.55-2.17,2.17ZM13.36,28.7l.19-.33.54-.54.15.15-.54.54-.33.19ZM22.45,20.46c.33.33.62.71.84,1.12l.05.08.07-.05s.07-.05.1-.08c.24-.18.78-.67.74-1.26-.03-.4-.39-.77-.78-.81-.18-.02-.37.03-.54.13l-.07.04.04.07c.04.06.03.14-.02.2l-.49.51.05.05ZM23.07,19.69c.12-.06.25-.09.38-.07.32.04.62.34.64.67.04.51-.46.95-.68,1.12,0,0-.02.02-.03.02-.21-.37-.47-.72-.77-1.03l.38-.4c.08-.08.1-.2.07-.31ZM23.46,22.26l-.19.13c-.31.2-.59.39-.83.63-.44.44-.67,1.05-.63,1.63.05.6.4,1.16.91,1.42.14.07.29.12.45.14h.06s.03-.04.03-.04c.35-.68.52-1.42.52-2.2,0-.55-.09-1.1-.27-1.61l-.03-.1ZM22.79,25.93c-.46-.23-.78-.74-.83-1.29-.04-.54.18-1.1.58-1.51.23-.23.51-.41.81-.61l.03-.02c.15.47.23.96.23,1.47,0,.73-.16,1.43-.48,2.08-.12-.02-.24-.06-.34-.12ZM22.36,20.55l-.06-.06-2.76,2.9.05.05c.05.06.05.16,0,.22l-.94.95.14.14c.06.06.06.16,0,.23l-1.26,1.26c-.06.06-.17.06-.23,0l-.29-.29-1.5,1.5.06.06c.91.86,2.09,1.33,3.35,1.33,1.54,0,3.01-.75,3.92-1.99l.07-.09-.11-.03c-.12-.04-.23-.08-.34-.14-.68-.35-1.16-1.09-1.22-1.88-.06-.75.24-1.53.8-2.09.28-.28.61-.5.93-.7h0l.21-.14.06-.04-.03-.06c-.22-.41-.5-.79-.83-1.12ZM22.87,21.78c-.32.21-.66.43-.95.72-.59.59-.9,1.42-.84,2.21.07.85.58,1.64,1.31,2.01.08.04.17.08.26.11-.89,1.16-2.28,1.84-3.73,1.84-1.18,0-2.31-.44-3.18-1.24l1.28-1.28.18.18c.12.12.33.12.45,0l1.26-1.26c.12-.12.12-.32,0-.45l-.03-.03.83-.83c.1-.1.12-.25.06-.37l2.55-2.69c.28.29.52.61.71.96-.05.03-.1.07-.15.1h0ZM18.91,19.11c-2.68,0-4.86,2.18-4.86,4.86,0,.84.22,1.66.63,2.39l.05.09,1.4-1.4-.29-.29s-.05-.07-.05-.11.02-.08.05-.11l1.26-1.26c.06-.06.17-.06.23,0l.14.14.94-.94c.06-.06.16-.06.22,0l.05.05,2.81-2.67-.09-.05c-.75-.44-1.61-.68-2.48-.68ZM17.45,23.19l-.03-.03c-.12-.12-.33-.12-.45,0l-1.26,1.26c-.06.06-.09.14-.09.22s.03.16.09.22l.18.18-1.14,1.14c-.36-.68-.56-1.44-.56-2.22,0-2.59,2.11-4.7,4.71-4.7.81,0,1.61.21,2.31.6l-2.56,2.43c-.12-.06-.28-.04-.37.06l-.83.83ZM23.19,21.67c-.22-.41-.5-.79-.83-1.12l-.06-.06-2.76,2.9.05.05c.05.06.05.16,0,.22l-.94.95.14.14c.06.06.06.16,0,.23l-1.26,1.26c-.06.06-.17.06-.23,0l-.29-.29-1.5,1.5.06.06c.91.86,2.09,1.33,3.35,1.33,1.54,0,3.01-.75,3.92-1.99l.07-.09-.11-.03c-.12-.04-.23-.08-.34-.14-.68-.35-1.16-1.09-1.22-1.88-.06-.75.24-1.53.8-2.09.28-.28.61-.5.93-.7h0l.21-.14.06-.04-.03-.06ZM22.87,21.78c-.32.21-.66.43-.95.72-.59.59-.9,1.42-.84,2.21.07.85.58,1.64,1.31,2.01.08.04.17.08.26.11-.89,1.16-2.28,1.84-3.73,1.84-1.18,0-2.31-.44-3.18-1.24l1.28-1.28.18.18c.12.12.33.12.45,0l1.26-1.26c.12-.12.12-.32,0-.45l-.03-.03.83-.83c.1-.1.12-.25.06-.37l2.55-2.69c.28.29.52.61.71.96-.05.03-.1.07-.15.1h0ZM24.24,20.27c-.03-.4-.39-.77-.78-.81-.18-.02-.37.03-.54.13l-.07.04.04.07c.04.06.03.14-.02.2l-.49.51.05.05c.33.33.62.71.84,1.12l.05.08.07-.05s.07-.05.1-.08c.24-.18.78-.67.74-1.26ZM23.38,21.43c-.21-.37-.47-.72-.77-1.03l.38-.4c.08-.08.1-.2.07-.31.12-.06.25-.09.38-.07.32.04.62.34.64.67.04.51-.46.95-.68,1.12,0,0-.02.02-.03.02ZM21.39,19.79c-.75-.44-1.61-.68-2.48-.68-2.68,0-4.86,2.18-4.86,4.86,0,.84.22,1.66.63,2.39l.05.09,1.4-1.4-.29-.29s-.05-.07-.05-.11.02-.08.05-.11l1.26-1.26c.06-.06.17-.06.23,0l.14.14.94-.94c.06-.06.16-.06.22,0l.05.05,2.81-2.67-.09-.05ZM17.45,23.19l-.03-.03c-.12-.12-.33-.12-.45,0l-1.26,1.26c-.06.06-.09.14-.09.22s.03.16.09.22l.18.18-1.14,1.14c-.36-.68-.56-1.44-.56-2.22,0-2.59,2.11-4.7,4.71-4.7.81,0,1.61.21,2.31.6l-2.56,2.43c-.12-.06-.28-.04-.37.06l-.83.83ZM23.5,22.36l-.03-.1-.19.13c-.31.2-.59.39-.83.63-.44.44-.67,1.05-.63,1.63.05.6.4,1.16.91,1.42.14.07.29.12.45.14h.06s.03-.04.03-.04c.35-.68.52-1.42.52-2.2,0-.55-.09-1.1-.27-1.61ZM22.79,25.93c-.46-.23-.78-.74-.83-1.29-.04-.54.18-1.1.58-1.51.23-.23.51-.41.81-.61l.03-.02c.15.47.23.96.23,1.47,0,.73-.16,1.43-.48,2.08-.12-.02-.24-.06-.34-.12ZM23.19,21.67c-.22-.41-.5-.79-.83-1.12l-.06-.06-2.76,2.9.05.05c.05.06.05.16,0,.22l-.94.95.14.14c.06.06.06.16,0,.23l-1.26,1.26c-.06.06-.17.06-.23,0l-.29-.29-1.5,1.5.06.06c.91.86,2.09,1.33,3.35,1.33,1.54,0,3.01-.75,3.92-1.99l.07-.09-.11-.03c-.12-.04-.23-.08-.34-.14-.68-.35-1.16-1.09-1.22-1.88-.06-.75.24-1.53.8-2.09.28-.28.61-.5.93-.7h0l.21-.14.06-.04-.03-.06ZM22.87,21.78c-.32.21-.66.43-.95.72-.59.59-.9,1.42-.84,2.21.07.85.58,1.64,1.31,2.01.08.04.17.08.26.11-.89,1.16-2.28,1.84-3.73,1.84-1.18,0-2.31-.44-3.18-1.24l1.28-1.28.18.18c.12.12.33.12.45,0l1.26-1.26c.12-.12.12-.32,0-.45l-.03-.03.83-.83c.1-.1.12-.25.06-.37l2.55-2.69c.28.29.52.61.71.96-.05.03-.1.07-.15.1h0ZM21.39,19.79c-.75-.44-1.61-.68-2.48-.68-2.68,0-4.86,2.18-4.86,4.86,0,.84.22,1.66.63,2.39l.05.09,1.4-1.4-.29-.29s-.05-.07-.05-.11.02-.08.05-.11l1.26-1.26c.06-.06.17-.06.23,0l.14.14.94-.94c.06-.06.16-.06.22,0l.05.05,2.81-2.67-.09-.05ZM17.45,23.19l-.03-.03c-.12-.12-.33-.12-.45,0l-1.26,1.26c-.06.06-.09.14-.09.22s.03.16.09.22l.18.18-1.14,1.14c-.36-.68-.56-1.44-.56-2.22,0-2.59,2.11-4.7,4.71-4.7.81,0,1.61.21,2.31.6l-2.56,2.43c-.12-.06-.28-.04-.37.06l-.83.83ZM23.5,22.36l-.03-.1-.19.13c-.31.2-.59.39-.83.63-.44.44-.67,1.05-.63,1.63.05.6.4,1.16.91,1.42.14.07.29.12.45.14h.06s.03-.04.03-.04c.35-.68.52-1.42.52-2.2,0-.55-.09-1.1-.27-1.61ZM22.79,25.93c-.46-.23-.78-.74-.83-1.29-.04-.54.18-1.1.58-1.51.23-.23.51-.41.81-.61l.03-.02c.15.47.23.96.23,1.47,0,.73-.16,1.43-.48,2.08-.12-.02-.24-.06-.34-.12ZM24.24,20.27c-.03-.4-.39-.77-.78-.81-.18-.02-.37.03-.54.13l-.07.04.04.07c.04.06.03.14-.02.2l-.49.51.05.05c.33.33.62.71.84,1.12l.05.08.07-.05s.07-.05.1-.08c.24-.18.78-.67.74-1.26ZM23.38,21.43c-.21-.37-.47-.72-.77-1.03l.38-.4c.08-.08.1-.2.07-.31.12-.06.25-.09.38-.07.32.04.62.34.64.67.04.51-.46.95-.68,1.12,0,0-.02.02-.03.02Z"/>
    </g>
    <path class="cls-1" d="M30.17,57.89s-.04.08-.08.1c-.04.03-.09.03-.14.02l-.72-.2v.07c-.07.55-.45,1.07-.99,1.37-.6.33-1.31.32-1.74-.02.04-.55.47-1.11,1.09-1.44.18-.1.37-.16.57-.2l.21-.04-.7-.25c-.24-.08-.49-.18-.49-.18l-.24-.09v.07c-.12.54-.54,1.03-1.1,1.29-.63.28-1.33.22-1.72-.14.08-.54.55-1.09,1.18-1.36.19-.08.39-.14.59-.17l.21-.03-.68-.29-.71-.33-.02.07c-.14.53-.59.99-1.17,1.21-.65.24-1.34.14-1.7-.25.12-.54.61-1.04,1.26-1.28.19-.07.39-.11.6-.13h.21s-.66-.34-.66-.34l-.68-.37-.02.07c-.18.52-.65.95-1.24,1.14-.64.2-1.31.06-1.68-.36.15-.53.69-1.01,1.35-1.21.19-.06.39-.09.59-.09h.22l-1.08-.65-.22-.14-.03.06c-.21.5-.71.91-1.31,1.05-.34.08-.68.08-.99-.01-.27-.08-.51-.24-.66-.45.18-.52.75-.96,1.41-1.11.2-.04.4-.06.61-.05h.22s-.19-.11-.19-.11c0,0-.22-.14-.43-.29l-.63-.46-.03.06c-.24.49-.77.86-1.38.97-.66.12-1.31-.11-1.62-.57.21-.5.81-.91,1.49-1.02.2-.03.4-.03.6,0l.21.03-1.19-.94-.03.06c-.27.48-.82.81-1.43.87-.69.07-1.34-.21-1.59-.67.25-.49.85-.85,1.55-.92.2-.02.41-.01.61.03l.21.04-.56-.49c-.1-.08-.19-.17-.26-.24l-.3-.29-.04.06c-.3.45-.88.75-1.49.78-.35.01-.69-.05-.98-.2-.25-.14-.45-.35-.56-.58.28-.47.92-.8,1.61-.81.23,0,.43.03.6.07l.2.05-.26-.26-.78-.83-.04.05c-.33.43-.92.7-1.55.68-.67-.02-1.26-.37-1.48-.88.31-.45.97-.73,1.66-.71.2,0,.4.05.59.11l.2.07-.98-1.16-.04.05c-.36.41-.98.63-1.58.57-.67-.07-1.25-.46-1.43-.97.34-.43,1.01-.67,1.71-.6.2.02.4.07.59.15l.2.08-.66-.87c-.06-.08-.09-.13-.09-.13l-.15-.21-.05.05c-.39.39-1,.57-1.61.47-.34-.05-.66-.19-.91-.39-.12-.1-.22-.21-.3-.32-.07-.11-.12-.23-.15-.35.37-.41,1.05-.6,1.73-.48.2.03.4.09.59.18l.19.09-.41-.61c-.14-.22-.27-.44-.27-.45l-.13-.22-.05.05c-.41.36-1.04.5-1.64.37-.34-.08-.65-.23-.89-.44-.26-.23-.36-.5-.39-.7.39-.39,1.09-.54,1.75-.37.22.06.41.13.57.22l.19.11-.2-.33c-.05-.07-.11-.19-.17-.31l-.36-.69-.05.04c-.43.33-1.07.44-1.66.27-.34-.09-.64-.27-.86-.49-.19-.21-.32-.46-.35-.72.42-.36,1.12-.47,1.77-.27.18.06.36.14.55.26l.18.11-.1-.19s-.12-.23-.23-.47l-.32-.71-.06.04c-.45.31-1.09.37-1.68.17-.33-.11-.62-.3-.83-.54-.18-.22-.29-.48-.3-.74.44-.34,1.15-.4,1.78-.16.17.07.34.16.54.29l.17.12-.15-.34c-.03-.06-.05-.13-.08-.21-.02-.04-.03-.08-.05-.13l-.28-.73-.06.04c-.47.28-1.11.31-1.68.07-.32-.13-.6-.34-.8-.59-.21-.27-.26-.55-.26-.75.46-.31,1.17-.34,1.79-.06.2.09.37.2.52.32l.17.14-.14-.36c-.03-.08-.08-.2-.11-.34l-.23-.74-.06.03c-.48.25-1.13.24-1.68-.02-.31-.15-.58-.37-.76-.63-.09-.13-.16-.26-.19-.39-.03-.12-.05-.25-.04-.37.48-.29,1.18-.28,1.79.03.18.09.36.2.51.34l.16.15-.22-.7-.19-.75-.06.03c-.49.23-1.13.18-1.67-.11-.6-.33-.97-.9-.93-1.43.49-.26,1.19-.21,1.81.12.18.1.34.22.49.37l.15.15-.27-1.06c-.02-.09-.03-.15-.03-.16l-.05-.25-.07.03c-.51.2-1.14.13-1.66-.2-.57-.36-.91-.94-.84-1.48.5-.24,1.21-.16,1.8.21.17.11.33.24.46.39l.14.16-.28-1.49-.06.02c-.52.18-1.17.07-1.66-.27-.55-.38-.85-.99-.75-1.51.51-.21,1.22-.1,1.78.29.17.12.31.25.44.41l.13.17-.2-1.5-.07.02c-.52.15-1.15.02-1.66-.35-.15-.11-.27-.23-.38-.36-.1-.13-.18-.26-.23-.4-.11-.26-.13-.54-.08-.78.52-.19,1.22-.05,1.76.36.16.12.3.27.41.43l.12.17-.11-1.51-.07.02c-.53.13-1.15-.03-1.63-.42-.27-.22-.48-.49-.59-.78-.06-.14-.09-.28-.1-.42,0-.13.01-.25.05-.36.53-.17,1.21,0,1.74.44.16.13.3.28.41.45l.12.18-.05-.74c-.01-.26-.01-.52-.01-.52v-.26s-.07.01-.07.01c-.53.11-1.15-.07-1.61-.48-.5-.44-.73-1.08-.58-1.58.53-.15,1.22.05,1.73.5.15.13.28.29.39.46l.11.18-.03-1.51h-.07c-.53.1-1.16-.11-1.6-.53-.48-.46-.68-1.1-.5-1.6.54-.13,1.22.09,1.71.56.14.14.27.3.36.48l.1.19.05-1.51h-.07c-.54.08-1.14-.15-1.58-.59C.19,12.82,0,12.18.21,11.71c.55-.11,1.22.13,1.68.62.14.14.27.31.36.49l.1.19.03-.73.05-.55-.02-.02c-.35-.37-.53-.91-.48-1.48.06-.68.42-1.27.93-1.51.46.36.72.99.66,1.66-.05.55-.31,1.05-.73,1.37l-.02.02-.05.55-.03.73.12-.18c.11-.17.24-.32.4-.44.54-.41,1.23-.56,1.77-.38.11.5-.12,1.05-.62,1.45-.48.39-1.1.56-1.62.45h-.07s-.05,1.49-.05,1.49l.12-.18c.11-.17.24-.32.4-.45.52-.43,1.2-.6,1.75-.43.14.47-.09,1.04-.61,1.47-.47.4-1.07.59-1.6.5h-.07s.03,1.49.03,1.49l.11-.18c.1-.18.23-.33.37-.47.49-.45,1.16-.64,1.72-.49.17.46-.04,1.04-.53,1.49-.46.42-1.07.63-1.59.56h-.07s0,.24,0,.24c0,0,0,.26.01.52l.05.73.1-.19c.09-.18.21-.34.35-.48.47-.46,1.16-.68,1.71-.56.04.1.06.21.06.33,0,.13,0,.26-.04.39-.08.28-.24.55-.48.79-.44.43-1.03.67-1.56.63h-.07s.11,1.5.11,1.5l.1-.19c.09-.18.21-.35.35-.49.46-.49,1.12-.73,1.69-.63.09.21.1.46.03.71-.04.14-.09.28-.17.41-.08.14-.17.27-.28.4-.41.45-.99.71-1.52.69h-.07s.2,1.49.2,1.49l.08-.2c.08-.19.19-.36.32-.51.44-.5,1.08-.77,1.65-.7.22.43.08,1.03-.36,1.53-.42.48-.97.76-1.5.76h-.07l.28,1.48.07-.2c.07-.19.17-.36.29-.52.41-.52,1.04-.82,1.61-.77.24.42.14,1.02-.27,1.54-.38.49-.95.81-1.47.83h-.07s.05.25.05.25c0,0,0,.07.03.16l.26,1.05.06-.2c.06-.19.15-.37.26-.53.37-.53,1-.87,1.57-.85.26.41.19,1.01-.18,1.55-.35.51-.9.85-1.42.9h-.07s.19.76.19.76l.22.69.05-.2c.05-.2.12-.38.23-.54.36-.55.97-.93,1.54-.93.06.09.1.19.13.3.04.13.05.26.05.38,0,.28-.11.58-.28.87-.33.52-.85.9-1.37.98h-.07s.23.74.23.74c.03.1.07.23.12.34l.13.35.04-.21c.04-.21.1-.39.2-.56.34-.58.92-.98,1.49-1.01.13.16.19.39.2.68,0,.28-.07.58-.23.88-.29.54-.8.94-1.31,1.05h-.07s.28.73.28.73c.02.04.03.08.05.13.03.08.06.15.08.21l.15.34.02-.21c.02-.19.08-.38.18-.57.3-.6.86-1.02,1.43-1.09.14.16.22.39.23.66.02.28-.04.59-.18.89-.26.55-.74.98-1.25,1.12l-.07.02.32.7c.1.24.23.47.23.47l.1.19v-.21c.02-.19.07-.38.15-.58.27-.61.8-1.07,1.37-1.18.15.15.24.38.27.65.04.28,0,.59-.13.9-.23.57-.68,1.03-1.18,1.19l-.07.02.36.68c.07.13.14.25.18.31l.19.32v-.21c0-.23.04-.41.1-.58.23-.63.73-1.12,1.29-1.26.15.14.26.34.32.62.05.27.03.59-.08.9-.2.58-.62,1.07-1.11,1.26l-.06.03.13.22s.13.23.27.44l.41.6v-.21c-.02-.2,0-.4.05-.59.18-.63.66-1.16,1.21-1.33.08.07.15.15.21.25.07.1.12.22.15.35.07.27.06.58-.03.91-.16.6-.56,1.11-1.03,1.33l-.06.03.14.21s.04.06.1.14l.66.86-.02-.21c-.02-.2-.01-.4.03-.59.13-.63.57-1.19,1.11-1.4.4.27.56.83.43,1.48-.13.62-.48,1.14-.94,1.4l-.06.03.97,1.15-.04-.21c-.03-.2-.04-.4,0-.6.1-.65.49-1.22,1.02-1.47.41.23.6.79.52,1.46-.08.61-.4,1.16-.84,1.45l-.06.04.69.74.35.35-.06-.21c-.05-.17-.06-.37-.05-.59.06-.66.42-1.26.93-1.54.2.1.36.28.46.52.12.25.18.56.15.89-.04.62-.33,1.19-.74,1.51l-.05.04.3.29c.06.06.16.16.26.24l.55.48-.06-.2c-.06-.19-.09-.39-.09-.59,0-.65.33-1.29.82-1.59.45.2.72.72.71,1.37,0,.62-.25,1.22-.65,1.56l-.05.05,1.18.93-.08-.2c-.07-.19-.11-.39-.12-.59-.04-.66.24-1.3.71-1.64.44.15.75.65.79,1.32.04.61-.16,1.22-.54,1.58l-.05.05.62.45c.21.15.43.29.43.29l.18.11-.09-.18c-.09-.18-.14-.37-.16-.57-.07-.66.17-1.32.61-1.69.21.06.4.2.56.42.17.22.28.52.32.85.08.61-.09,1.24-.44,1.63l-.05.05,1.29.78-.1-.19c-.1-.18-.16-.37-.2-.56-.12-.65.08-1.32.5-1.72.45.09.83.56.96,1.21.12.6,0,1.23-.33,1.64l-.04.05.68.37.65.33-.11-.18c-.11-.17-.19-.35-.24-.54-.16-.63,0-1.33.39-1.75.48.08.88.52,1.03,1.15.16.59.07,1.23-.23,1.66l-.04.06.7.32.67.29-.13-.17c-.12-.16-.21-.34-.27-.53-.2-.63-.09-1.33.28-1.78.48.05.9.46,1.1,1.08.2.58.15,1.22-.11,1.67l-.03.06.23.09s.24.1.49.18l.69.24-.14-.16c-.13-.16-.23-.33-.31-.51-.24-.6-.18-1.31.15-1.78.47,0,.91.38,1.16.99.23.57.24,1.21.01,1.68l-.03.06.7.2h0c.09.02.15.12.13.21Z"/>
  </g>
</svg>